<svg xmlns="http://www.w3.org/2000/svg" width="1440" height="900"><path d="M836,436L997,436L992,285Z" fill="#74c4c8" stroke="#74c4c8" stroke-width="1.51"/><path d="M992,285L775,253L836,436Z" fill="#81cac4" stroke="#81cac4" stroke-width="1.51"/><path d="M992,285L985,151L775,253Z" fill="#8accc4" stroke="#8accc4" stroke-width="1.51"/><path d="M992,285L1160,295L985,151Z" fill="#81c3c3" stroke="#81c3c3" stroke-width="1.51"/><path d="M997,436L1160,295L992,285Z" fill="#74bfc5" stroke="#74bfc5" stroke-width="1.51"/><path d="M997,436L1142,478L1160,295Z" fill="#69b8c5" stroke="#69b8c5" stroke-width="1.51"/><path d="M1024,664L1142,478L997,436Z" fill="#5ab5cc" stroke="#5ab5cc" stroke-width="1.51"/><path d="M775,253L666,486L836,436Z" fill="#80ccc3" stroke="#80ccc3" stroke-width="1.51"/><path d="M836,436L825,636L997,436Z" fill="#69c0cb" stroke="#69c0cb" stroke-width="1.51"/><path d="M666,486L825,636L836,436Z" fill="#70c5c8" stroke="#70c5c8" stroke-width="1.51"/><path d="M775,253L634,225L666,486Z" fill="#8ed2be" stroke="#8ed2be" stroke-width="1.51"/><path d="M612,124L634,225L775,253Z" fill="#9cd8bd" stroke="#9cd8bd" stroke-width="1.51"/><path d="M985,151L812,62L775,253Z" fill="#95d1c5" stroke="#95d1c5" stroke-width="1.51"/><path d="M825,636L1024,664L997,436Z" fill="#5bb8d0" stroke="#5bb8d0" stroke-width="1.51"/><path d="M666,486L614,582L825,636Z" fill="#71c5c8" stroke="#71c5c8" stroke-width="1.51"/><path d="M510,428L614,582L666,486Z" fill="#83cdc3" stroke="#83cdc3" stroke-width="1.51"/><path d="M1142,478L1302,462L1160,295Z" fill="#62afc1" stroke="#62afc1" stroke-width="1.51"/><path d="M1024,664L1178,643L1142,478Z" fill="#4eabcc" stroke="#4eabcc" stroke-width="1.51"/><path d="M1160,295L1196,96L985,151Z" fill="#84c0c2" stroke="#84c0c2" stroke-width="1.51"/><path d="M942,-92L825,-67L812,62Z" fill="#a3d6ce" stroke="#a3d6ce" stroke-width="1.51"/><path d="M1338,232L1196,96L1160,295Z" fill="#7cb5bd" stroke="#7cb5bd" stroke-width="1.51"/><path d="M812,62L612,124L775,253Z" fill="#9dd8c2" stroke="#9dd8c2" stroke-width="1.51"/><path d="M634,225L510,428L666,486Z" fill="#8fd3be" stroke="#8fd3be" stroke-width="1.51"/><path d="M1299,629L1302,462L1142,478Z" fill="#51a6c4" stroke="#51a6c4" stroke-width="1.51"/><path d="M468,325L510,428L634,225Z" fill="#9bd7bb" stroke="#9bd7bb" stroke-width="1.51"/><path d="M812,62L647,-74L612,124Z" fill="#a9ddc5" stroke="#a9ddc5" stroke-width="1.51"/><path d="M942,-92L812,62L985,151Z" fill="#9bd2cb" stroke="#9bd2cb" stroke-width="1.51"/><path d="M1302,462L1338,232L1160,295Z" fill="#6caebc" stroke="#6caebc" stroke-width="1.51"/><path d="M1024,664L1147,825L1178,643Z" fill="#40a2ca" stroke="#40a2ca" stroke-width="1.51"/><path d="M825,636L987,807L1024,664Z" fill="#4daecf" stroke="#4daecf" stroke-width="1.51"/><path d="M773,807L987,807L825,636Z" fill="#53aeca" stroke="#53aeca" stroke-width="1.51"/><path d="M612,124L468,325L634,225Z" fill="#a2daba" stroke="#a2daba" stroke-width="1.51"/><path d="M1163,-72L942,-92L985,151Z" fill="#97ccce" stroke="#97ccce" stroke-width="1.51"/><path d="M1302,462L1450,312L1338,232Z" fill="#68a7b9" stroke="#68a7b9" stroke-width="1.51"/><path d="M1178,643L1299,629L1142,478Z" fill="#4aa6c8" stroke="#4aa6c8" stroke-width="1.51"/><path d="M1348,787L1299,629L1178,643Z" fill="#3998c4" stroke="#3998c4" stroke-width="1.51"/><path d="M640,778L773,807L825,636Z" fill="#5eb4c8" stroke="#5eb4c8" stroke-width="1.51"/><path d="M1196,96L1163,-72L985,151Z" fill="#90c4c7" stroke="#90c4c7" stroke-width="1.51"/><path d="M1338,232L1296,75L1196,96Z" fill="#82b5be" stroke="#82b5be" stroke-width="1.51"/><path d="M614,582L640,778L825,636Z" fill="#69beca" stroke="#69beca" stroke-width="1.51"/><path d="M488,746L640,778L614,582Z" fill="#73bec5" stroke="#73bec5" stroke-width="1.51"/><path d="M430,621L614,582L510,428Z" fill="#86ccc2" stroke="#86ccc2" stroke-width="1.51"/><path d="M1296,75L1163,-72L1196,96Z" fill="#8cbcc5" stroke="#8cbcc5" stroke-width="1.51"/><path d="M612,124L445,61L468,325Z" fill="#addfba" stroke="#addfba" stroke-width="1.51"/><path d="M825,-67L647,-74L812,62Z" fill="#a8dbcb" stroke="#a8dbcb" stroke-width="1.51"/><path d="M803,-236L647,-74L825,-67Z" fill="#adddd0" stroke="#adddd0" stroke-width="1.51"/><path d="M987,807L1147,825L1024,664Z" fill="#40a1c9" stroke="#40a1c9" stroke-width="1.51"/><path d="M1114,948L1147,825L987,807Z" fill="#3695c3" stroke="#3695c3" stroke-width="1.51"/><path d="M1538,419L1450,312L1302,462Z" fill="#5d9fb9" stroke="#5d9fb9" stroke-width="1.51"/><path d="M1338,232L1475,67L1296,75Z" fill="#80aebc" stroke="#80aebc" stroke-width="1.51"/><path d="M323,490L430,621L510,428Z" fill="#91d1c0" stroke="#91d1c0" stroke-width="1.51"/><path d="M449,-39L445,61L612,124Z" fill="#b8e3be" stroke="#b8e3be" stroke-width="1.51"/><path d="M468,325L323,490L510,428Z" fill="#99d6bc" stroke="#99d6bc" stroke-width="1.51"/><path d="M761,929L984,934L773,807Z" fill="#4da0c2" stroke="#4da0c2" stroke-width="1.51"/><path d="M430,621L488,746L614,582Z" fill="#7dc6c5" stroke="#7dc6c5" stroke-width="1.51"/><path d="M761,929L773,807L640,778Z" fill="#5aabc1" stroke="#5aabc1" stroke-width="1.51"/><path d="M773,807L984,934L987,807Z" fill="#46a1c6" stroke="#46a1c6" stroke-width="1.51"/><path d="M598,921L761,929L640,778Z" fill="#5fa9bf" stroke="#5fa9bf" stroke-width="1.51"/><path d="M1296,75L1333,-69L1163,-72Z" fill="#8db9c6" stroke="#8db9c6" stroke-width="1.51"/><path d="M1012,-244L803,-236L942,-92Z" fill="#a8d7d9" stroke="#a8d7d9" stroke-width="1.51"/><path d="M1475,67L1333,-69L1296,75Z" fill="#88b1c0" stroke="#88b1c0" stroke-width="1.51"/><path d="M1534,634L1538,419L1302,462Z" fill="#4d98bc" stroke="#4d98bc" stroke-width="1.51"/><path d="M1147,825L1348,787L1178,643Z" fill="#3595c3" stroke="#3595c3" stroke-width="1.51"/><path d="M1328,956L1348,787L1147,825Z" fill="#2988bc" stroke="#2988bc" stroke-width="1.51"/><path d="M430,621L311,817L488,746Z" fill="#81c0c2" stroke="#81c0c2" stroke-width="1.51"/><path d="M236,234L323,490L468,325Z" fill="#a7dcbc" stroke="#a7dcbc" stroke-width="1.51"/><path d="M942,-92L803,-236L825,-67Z" fill="#a8d9d4" stroke="#a8d9d4" stroke-width="1.51"/><path d="M647,-74L449,-39L612,124Z" fill="#b5e2c3" stroke="#b5e2c3" stroke-width="1.51"/><path d="M1012,-244L942,-92L1163,-72Z" fill="#9dced5" stroke="#9dced5" stroke-width="1.51"/><path d="M1176,-288L1012,-244L1163,-72Z" fill="#9dc9d5" stroke="#9dc9d5" stroke-width="1.51"/><path d="M445,61L236,234L468,325Z" fill="#b2e1b9" stroke="#b2e1b9" stroke-width="1.51"/><path d="M628,-192L449,-39L647,-74Z" fill="#bae4c9" stroke="#bae4c9" stroke-width="1.51"/><path d="M984,934L1114,948L987,807Z" fill="#3896c4" stroke="#3896c4" stroke-width="1.51"/><path d="M1025,1136L1114,948L984,934Z" fill="#328bbf" stroke="#328bbf" stroke-width="1.51"/><path d="M1450,312L1475,67L1338,232Z" fill="#77a7b6" stroke="#77a7b6" stroke-width="1.51"/><path d="M1534,634L1302,462L1299,629Z" fill="#4599c1" stroke="#4599c1" stroke-width="1.51"/><path d="M803,-236L628,-192L647,-74Z" fill="#b4e2d0" stroke="#b4e2d0" stroke-width="1.51"/><path d="M1624,276L1475,67L1450,312Z" fill="#72a0b2" stroke="#72a0b2" stroke-width="1.51"/><path d="M488,746L598,921L640,778Z" fill="#6db2bf" stroke="#6db2bf" stroke-width="1.51"/><path d="M761,929L763,1117L984,934Z" fill="#4997be" stroke="#4997be" stroke-width="1.51"/><path d="M463,939L598,921L488,746Z" fill="#70aeba" stroke="#70aeba" stroke-width="1.51"/><path d="M1348,787L1534,634L1299,629Z" fill="#3590c1" stroke="#3590c1" stroke-width="1.51"/><path d="M323,490L281,628L430,621Z" fill="#91cfc5" stroke="#91cfc5" stroke-width="1.51"/><path d="M160,416L281,628L323,490Z" fill="#9dd6c6" stroke="#9dd6c6" stroke-width="1.51"/><path d="M244,110L236,234L445,61Z" fill="#bde5be" stroke="#bde5be" stroke-width="1.51"/><path d="M1504,-49L1325,-202L1333,-69Z" fill="#8db2c7" stroke="#8db2c7" stroke-width="1.51"/><path d="M1333,-69L1325,-202L1163,-72Z" fill="#91bbcb" stroke="#91bbcb" stroke-width="1.51"/><path d="M1325,-202L1176,-288L1163,-72Z" fill="#97c1d1" stroke="#97c1d1" stroke-width="1.51"/><path d="M1012,-244L1176,-288L803,-236Z" fill="#a7d4dd" stroke="#a7d4dd" stroke-width="1.51"/><path d="M1538,419L1624,276L1450,312Z" fill="#639ab1" stroke="#639ab1" stroke-width="1.51"/><path d="M1475,67L1504,-49L1333,-69Z" fill="#87acc0" stroke="#87acc0" stroke-width="1.51"/><path d="M1672,484L1624,276L1538,419Z" fill="#5991ad" stroke="#5991ad" stroke-width="1.51"/><path d="M1328,956L1466,820L1348,787Z" fill="#2380b9" stroke="#2380b9" stroke-width="1.51"/><path d="M1348,787L1466,820L1534,634Z" fill="#2c86bc" stroke="#2c86bc" stroke-width="1.51"/><path d="M1658,-45L1504,-49L1475,67Z" fill="#84a4ba" stroke="#84a4ba" stroke-width="1.51"/><path d="M290,-35L445,61L449,-39Z" fill="#c2e8c2" stroke="#c2e8c2" stroke-width="1.51"/><path d="M290,-35L244,110L445,61Z" fill="#c5e8c2" stroke="#c5e8c2" stroke-width="1.51"/><path d="M1114,948L1328,956L1147,825Z" fill="#2b88bc" stroke="#2b88bc" stroke-width="1.51"/><path d="M598,921L763,1117L761,929Z" fill="#569dba" stroke="#569dba" stroke-width="1.51"/><path d="M1114,948L1193,1152L1328,956Z" fill="#227db7" stroke="#227db7" stroke-width="1.51"/><path d="M311,817L463,939L488,746Z" fill="#7ab5bc" stroke="#7ab5bc" stroke-width="1.51"/><path d="M628,-192L505,-254L449,-39Z" fill="#c0e7cb" stroke="#c0e7cb" stroke-width="1.51"/><path d="M803,-236L505,-254L628,-192Z" fill="#bbe4d2" stroke="#bbe4d2" stroke-width="1.51"/><path d="M1176,-288L505,-254L803,-236Z" fill="#b1ddda" stroke="#b1ddda" stroke-width="1.51"/><path d="M338,-213L290,-35L449,-39Z" fill="#c9eac9" stroke="#c9eac9" stroke-width="1.51"/><path d="M163,90L161,320L236,234Z" fill="#bfe6bf" stroke="#bfe6bf" stroke-width="1.51"/><path d="M236,234L161,320L323,490Z" fill="#aedfc0" stroke="#aedfc0" stroke-width="1.51"/><path d="M163,90L236,234L244,110Z" fill="#c4e8c1" stroke="#c4e8c1" stroke-width="1.51"/><path d="M136,762L311,817L281,628Z" fill="#8dc4c6" stroke="#8dc4c6" stroke-width="1.51"/><path d="M281,628L311,817L430,621Z" fill="#89c6c6" stroke="#89c6c6" stroke-width="1.51"/><path d="M161,320L160,416L323,490Z" fill="#aaddc3" stroke="#aaddc3" stroke-width="1.51"/><path d="M1640,639L1672,484L1534,634Z" fill="#3e86b3" stroke="#3e86b3" stroke-width="1.51"/><path d="M1534,634L1672,484L1538,419Z" fill="#498eb4" stroke="#498eb4" stroke-width="1.51"/><path d="M595,1137L763,1117L598,921Z" fill="#5a97b4" stroke="#5a97b4" stroke-width="1.51"/><path d="M1466,820L1640,639L1534,634Z" fill="#2f83b8" stroke="#2f83b8" stroke-width="1.51"/><path d="M763,1117L1025,1136L984,934Z" fill="#3c8cbb" stroke="#3c8cbb" stroke-width="1.51"/><path d="M-17,588L135,672L160,416Z" fill="#a2d6ce" stroke="#a2d6ce" stroke-width="1.51"/><path d="M290,-35L163,90L244,110Z" fill="#cbeac4" stroke="#cbeac4" stroke-width="1.51"/><path d="M83,-22L163,90L290,-35Z" fill="#d0edc9" stroke="#d0edc9" stroke-width="1.51"/><path d="M505,-254L338,-213L449,-39Z" fill="#c8eacb" stroke="#c8eacb" stroke-width="1.51"/><path d="M1025,1136L1193,1152L1114,948Z" fill="#2a7eb5" stroke="#2a7eb5" stroke-width="1.51"/><path d="M1328,956L1496,983L1466,820Z" fill="#1c77b4" stroke="#1c77b4" stroke-width="1.51"/><path d="M1466,820L1716,818L1640,639Z" fill="#2879b0" stroke="#2879b0" stroke-width="1.51"/><path d="M503,1151L1193,1152L1025,1136Z" fill="#3d83b1" stroke="#3d83b1" stroke-width="1.51"/><path d="M1504,-49L1470,-266L1325,-202Z" fill="#90b0c8" stroke="#90b0c8" stroke-width="1.51"/><path d="M1325,-202L1470,-266L1176,-288Z" fill="#98bad1" stroke="#98bad1" stroke-width="1.51"/><path d="M1721,-210L1470,-266L1504,-49Z" fill="#8ba5c1" stroke="#8ba5c1" stroke-width="1.51"/><path d="M463,939L595,1137L598,921Z" fill="#67a1b6" stroke="#67a1b6" stroke-width="1.51"/><path d="M763,1117L595,1137L1025,1136Z" fill="#498aaf" stroke="#498aaf" stroke-width="1.51"/><path d="M503,1151L595,1137L463,939Z" fill="#6899af" stroke="#6899af" stroke-width="1.51"/><path d="M1893,306L1700,62L1624,276Z" fill="#6c8d9f" stroke="#6c8d9f" stroke-width="1.51"/><path d="M1624,276L1700,62L1475,67Z" fill="#789bae" stroke="#789bae" stroke-width="1.51"/><path d="M160,416L135,672L281,628Z" fill="#9dd3ca" stroke="#9dd3ca" stroke-width="1.51"/><path d="M311,817L288,966L463,939Z" fill="#7cafbb" stroke="#7cafbb" stroke-width="1.51"/><path d="M-17,403L160,416L161,320Z" fill="#b2e0c6" stroke="#b2e0c6" stroke-width="1.51"/><path d="M1700,62L1658,-45L1475,67Z" fill="#809db2" stroke="#809db2" stroke-width="1.51"/><path d="M1363,1138L1496,983L1328,956Z" fill="#146fb0" stroke="#146fb0" stroke-width="1.51"/><path d="M136,762L288,966L311,817Z" fill="#86b8c1" stroke="#86b8c1" stroke-width="1.51"/><path d="M135,672L136,762L281,628Z" fill="#94cacb" stroke="#94cacb" stroke-width="1.51"/><path d="M333,1126L503,1151L463,939Z" fill="#709dae" stroke="#709dae" stroke-width="1.51"/><path d="M595,1137L503,1151L1025,1136Z" fill="#518cac" stroke="#518cac" stroke-width="1.51"/><path d="M1193,1152L1363,1138L1328,956Z" fill="#1b71ad" stroke="#1b71ad" stroke-width="1.51"/><path d="M1672,484L1810,468L1624,276Z" fill="#5589a6" stroke="#5589a6" stroke-width="1.51"/><path d="M1817,655L1810,468L1672,484Z" fill="#437ea6" stroke="#437ea6" stroke-width="1.51"/><path d="M1817,655L1672,484L1640,639Z" fill="#3c7eac" stroke="#3c7eac" stroke-width="1.51"/><path d="M-72,244L-17,403L161,320Z" fill="#bbe4c7" stroke="#bbe4c7" stroke-width="1.51"/><path d="M135,672L-95,757L136,762Z" fill="#96c8ce" stroke="#96c8ce" stroke-width="1.51"/><path d="M68,-241L83,-22L290,-35Z" fill="#d7f0d0" stroke="#d7f0d0" stroke-width="1.51"/><path d="M1707,933L1716,818L1466,820Z" fill="#1d6da9" stroke="#1d6da9" stroke-width="1.51"/><path d="M1707,933L1466,820L1496,983Z" fill="#186eac" stroke="#186eac" stroke-width="1.51"/><path d="M-72,244L161,320L163,90Z" fill="#c2e8c3" stroke="#c2e8c3" stroke-width="1.51"/><path d="M1716,818L1817,655L1640,639Z" fill="#2d74a9" stroke="#2d74a9" stroke-width="1.51"/><path d="M-17,403L-17,588L160,416Z" fill="#aaddcd" stroke="#aaddcd" stroke-width="1.51"/><path d="M99,1005L333,1126L288,966Z" fill="#7fa6b9" stroke="#7fa6b9" stroke-width="1.51"/><path d="M288,966L333,1126L463,939Z" fill="#77a5b6" stroke="#77a5b6" stroke-width="1.51"/><path d="M99,1005L288,966L136,762Z" fill="#88b3c0" stroke="#88b3c0" stroke-width="1.51"/><path d="M1363,1138L1479,1148L1496,983Z" fill="#0f65a7" stroke="#0f65a7" stroke-width="1.51"/><path d="M1193,1152L1479,1148L1363,1138Z" fill="#1766a5" stroke="#1766a5" stroke-width="1.51"/><path d="M1716,818L1878,802L1817,655Z" fill="#276ca4" stroke="#276ca4" stroke-width="1.51"/><path d="M1699,1111L1707,933L1496,983Z" fill="#0d5fa1" stroke="#0d5fa1" stroke-width="1.51"/><path d="M1810,468L1893,306L1624,276Z" fill="#5c879f" stroke="#5c879f" stroke-width="1.51"/><path d="M1806,-71L1721,-210L1658,-45Z" fill="#8296b0" stroke="#8296b0" stroke-width="1.51"/><path d="M1817,655L1893,306L1810,468Z" fill="#4b81a4" stroke="#4b81a4" stroke-width="1.51"/><path d="M83,-22L-17,53L163,90Z" fill="#d2eecb" stroke="#d2eecb" stroke-width="1.51"/><path d="M1806,-71L1658,-45L1700,62Z" fill="#7e94ab" stroke="#7e94ab" stroke-width="1.51"/><path d="M1658,-45L1721,-210L1504,-49Z" fill="#859fb7" stroke="#859fb7" stroke-width="1.51"/><path d="M1869,72L1806,-71L1700,62Z" fill="#7b91a6" stroke="#7b91a6" stroke-width="1.51"/><path d="M-17,53L-72,244L163,90Z" fill="#cdebc9" stroke="#cdebc9" stroke-width="1.51"/><path d="M-230,635L-95,757L-17,588Z" fill="#a2d2d9" stroke="#a2d2d9" stroke-width="1.51"/><path d="M1893,306L1869,72L1700,62Z" fill="#718ea1" stroke="#718ea1" stroke-width="1.51"/><path d="M-80,985L99,1005L136,762Z" fill="#8cb4c5" stroke="#8cb4c5" stroke-width="1.51"/><path d="M338,-213L68,-241L290,-35Z" fill="#d6efd0" stroke="#d6efd0" stroke-width="1.51"/><path d="M83,-22L-77,-41L-17,53Z" fill="#d8f0d1" stroke="#d8f0d1" stroke-width="1.51"/><path d="M505,-254L68,-241L338,-213Z" fill="#d5efd2" stroke="#d5efd2" stroke-width="1.51"/><path d="M1176,-288L68,-241L505,-254Z" fill="#c2e7d2" stroke="#c2e7d2" stroke-width="1.51"/><path d="M1817,655L1878,802L1893,306Z" fill="#3c7aa8" stroke="#3c7aa8" stroke-width="1.51"/><path d="M1865,955L1878,802L1716,818Z" fill="#1c639e" stroke="#1c639e" stroke-width="1.51"/><path d="M1865,955L1716,818L1707,933Z" fill="#195f9c" stroke="#195f9c" stroke-width="1.51"/><path d="M-17,53L-181,250L-72,244Z" fill="#cdebcc" stroke="#cdebcc" stroke-width="1.51"/><path d="M-8,-212L-77,-41L83,-22Z" fill="#dcf1d6" stroke="#dcf1d6" stroke-width="1.51"/><path d="M1479,1148L1699,1111L1496,983Z" fill="#095ea1" stroke="#095ea1" stroke-width="1.51"/><path d="M-17,588L-95,757L135,672Z" fill="#9cced3" stroke="#9cced3" stroke-width="1.51"/><path d="M-187,462L-17,588L-17,403Z" fill="#aeded2" stroke="#aeded2" stroke-width="1.51"/><path d="M-181,250L-17,403L-72,244Z" fill="#c1e7cb" stroke="#c1e7cb" stroke-width="1.51"/><path d="M68,-241L-8,-212L83,-22Z" fill="#def2d8" stroke="#def2d8" stroke-width="1.51"/><path d="M-268,70L-181,250L-17,53Z" fill="#d5eed1" stroke="#d5eed1" stroke-width="1.51"/><path d="M1869,72L1867,-199L1806,-71Z" fill="#7f92ab" stroke="#7f92ab" stroke-width="1.51"/><path d="M1806,-71L1867,-199L1721,-210Z" fill="#8494b0" stroke="#8494b0" stroke-width="1.51"/><path d="M1721,-210L1867,-199L1470,-266Z" fill="#8a9cb9" stroke="#8a9cb9" stroke-width="1.51"/><path d="M1893,306L1867,-199L1869,72Z" fill="#7990a4" stroke="#7990a4" stroke-width="1.51"/><path d="M-181,250L-187,462L-17,403Z" fill="#bce4cf" stroke="#bce4cf" stroke-width="1.51"/><path d="M1699,1111L1865,955L1707,933Z" fill="#0e5798" stroke="#0e5798" stroke-width="1.51"/><path d="M99,1005L84,1138L333,1126Z" fill="#80a0b5" stroke="#80a0b5" stroke-width="1.51"/><path d="M333,1126L-65,1185L503,1151Z" fill="#7997ab" stroke="#7997ab" stroke-width="1.51"/><path d="M-80,985L84,1138L99,1005Z" fill="#87a8c0" stroke="#87a8c0" stroke-width="1.51"/><path d="M-228,920L-80,985L-95,757Z" fill="#95bbce" stroke="#95bbce" stroke-width="1.51"/><path d="M-95,757L-80,985L136,762Z" fill="#92becb" stroke="#92becb" stroke-width="1.51"/><path d="M-187,462L-230,635L-17,588Z" fill="#abdad8" stroke="#abdad8" stroke-width="1.51"/><path d="M-268,70L-230,635L-187,462Z" fill="#bee5d4" stroke="#bee5d4" stroke-width="1.51"/><path d="M1699,1111L1859,1106L1865,955Z" fill="#0a5194" stroke="#0a5194" stroke-width="1.51"/><path d="M1865,955L1859,1106L1878,802Z" fill="#145a9a" stroke="#145a9a" stroke-width="1.51"/><path d="M1479,1148L1859,1106L1699,1111Z" fill="#0a5093" stroke="#0a5093" stroke-width="1.51"/><path d="M-181,250L-268,70L-187,462Z" fill="#cbebce" stroke="#cbebce" stroke-width="1.51"/><path d="M-77,-41L-268,70L-17,53Z" fill="#dbf1d4" stroke="#dbf1d4" stroke-width="1.51"/><path d="M-246,-51L-268,70L-77,-41Z" fill="#e0f3d9" stroke="#e0f3d9" stroke-width="1.51"/><path d="M-184,-205L-246,-51L-77,-41Z" fill="#e3f5dd" stroke="#e3f5dd" stroke-width="1.51"/><path d="M-230,635L-239,808L-95,757Z" fill="#a0ccd8" stroke="#a0ccd8" stroke-width="1.51"/><path d="M-268,70L-239,808L-230,635Z" fill="#b4dfd9" stroke="#b4dfd9" stroke-width="1.51"/><path d="M68,-241L-184,-205L-8,-212Z" fill="#e5f5df" stroke="#e5f5df" stroke-width="1.51"/><path d="M-8,-212L-184,-205L-77,-41Z" fill="#e3f4dd" stroke="#e3f4dd" stroke-width="1.51"/><path d="M-239,808L-228,920L-95,757Z" fill="#9ac1d3" stroke="#9ac1d3" stroke-width="1.51"/><path d="M-80,985L-65,1185L84,1138Z" fill="#86a2bb" stroke="#86a2bb" stroke-width="1.51"/><path d="M-274,1119L-65,1185L-80,985Z" fill="#8ba5c1" stroke="#8ba5c1" stroke-width="1.51"/><path d="M84,1138L-65,1185L333,1126Z" fill="#809bb0" stroke="#809bb0" stroke-width="1.51"/><path d="M503,1151L-65,1185L1193,1152Z" fill="#628fa6" stroke="#628fa6" stroke-width="1.51"/><path d="M1193,1152L-65,1185L1479,1148Z" fill="#4183ae" stroke="#4183ae" stroke-width="1.51"/><path d="M-268,70L-274,1119L-239,808Z" fill="#a8d4de" stroke="#a8d4de" stroke-width="1.51"/><path d="M-239,808L-274,1119L-228,920Z" fill="#97b6d0" stroke="#97b6d0" stroke-width="1.51"/><path d="M-228,920L-274,1119L-80,985Z" fill="#92afcb" stroke="#92afcb" stroke-width="1.51"/></svg>
